<svg width="60" height="60" viewBox="0 0 60 60" fill="none" xmlns="http://www.w3.org/2000/svg">
<g clip-path="url(#clip0_33_18)">
<path d="M51.341 20.3055C53.0041 21.9686 51.9398 24.765 49.6845 24.9861L49.3965 25L10 25C8.61925 25 7.5 23.8807 7.5 22.5C7.5 21.2179 8.46507 20.1612 9.70844 20.0168L10 20L43.9645 20L38.2322 14.2678C37.2559 13.2914 37.2559 11.7085 38.2322 10.7322C39.1334 9.83102 40.5515 9.7617 41.5323 10.5243L41.7678 10.7322L51.341 20.3055ZM52.5 37.5C52.5 38.7821 51.5349 39.8388 50.2915 39.9832L50 40L16.0355 40L21.7678 45.7323C22.744 46.7085 22.744 48.2915 21.7678 49.2678C20.8666 50.1689 19.4484 50.2382 18.4678 49.4757L18.2323 49.2678L8.659 39.6945C6.9958 38.0313 8.06008 35.235 10.3155 35.014L10.6035 35L50 35C51.3807 35 52.5 36.1193 52.5 37.5Z" fill="#131313"/>
</g>
<defs>
<clipPath id="clip0_33_18">
<rect width="60" height="60" fill="white" transform="translate(60) rotate(90)"/>
</clipPath>
</defs>
</svg>
